<svg xmlns="http://www.w3.org/2000/svg" width="141" height="67" viewBox="0 0 141 67">
  <g id="logoPlouf" transform="translate(7504 253)">
    <text id="pl_uf" data-name="pl uf" transform="translate(-7434 -199)" fill="#fff" font-size="60" font-family="nevis-Bold, nevis" font-weight="700"><tspan x="-69.445" y="0">pl</tspan><tspan y="0" letter-spacing="0.183em"> </tspan><tspan y="0">uf</tspan></text>
    <path id="Tracé_55" data-name="Tracé 55" d="M198.092,273.7A15.3,15.3,0,1,0,213.4,289a15.3,15.3,0,0,0-15.306-15.3m0,10.674a2.62,2.62,0,0,0-2.741,2.478,2.277,2.277,0,0,0,.339,1.192c-1.465-.414-2.338-1.108-2.4-2.2-.118-2.034,1.849-4.138,4.8-4.138s4.921,2.1,4.8,4.138c-.062,1.1-.935,1.79-2.4,2.2a2.276,2.276,0,0,0,.338-1.192A2.619,2.619,0,0,0,198.092,284.376Zm6.8.818a5.913,5.913,0,0,0,.032-.6c0-3.251-3.06-5.885-6.83-5.885s-6.83,2.634-6.83,5.885a4.93,4.93,0,0,0,.034.6,5.284,5.284,0,0,1-1.033-3.1c0-3.458,3.5-6.257,7.828-6.257s7.83,2.8,7.83,6.257A5.29,5.29,0,0,1,204.89,285.194Z" transform="translate(-7634.789 -502.702)" fill="#fff"/>
  </g>
</svg>
